<?xml version="1.0" encoding="UTF-8"?>
<svg width="28px" height="34px" viewBox="0 0 28 34" version="1.1" xmlns="http://www.w3.org/2000/svg" xmlns:xlink="http://www.w3.org/1999/xlink">
    <!-- Generator: Sketch 52.6 (67491) - http://www.bohemiancoding.com/sketch -->
    <title>pointerCgris</title>
    <desc>Created with Sketch.</desc>
    <g id="outras" stroke="none" stroke-width="1" fill="none" fill-rule="evenodd">
        <g id="iconos" transform="translate(-291.000000, -264.000000)">
            <g id="pointerA-gris-Copy-2" transform="translate(291.000000, 264.000000)">
                <path d="M14.000131,0 C6.2680505,0 0,6.12699148 0,13.6848097 C0,23.9321517 10.2107381,31.700265 13.1919927,33.7496822 C13.677557,34.0834393 14.322443,34.0834393 14.8080073,33.7496822 C17.7892619,31.7000089 28,23.9321517 28,13.6848097 C28,6.12699148 21.7319495,0 14.000131,0 Z" id="Shape" fill="#9FAAB7"></path>
                <path d="M14.752,20.21 C11.896,20.21 9.6,18.152 9.6,15.058 C9.6,11.964 11.952,9.864 14.724,9.864 C17.706,9.864 19.022,11.782 19.344,13.21 L17.258,13.868 C17.104,13.182 16.474,12.02 14.724,12.02 C13.394,12.02 11.896,12.972 11.896,15.058 C11.896,16.92 13.268,17.998 14.752,17.998 C16.474,17.998 17.16,16.85 17.356,16.136 L19.47,16.738 C19.148,18.11 17.832,20.21 14.752,20.21 Z" id="C" fill="#FFFFFF"></path>
            </g>
        </g>
    </g>
</svg>