<?xml version="1.0" encoding="UTF-8"?>
<svg width="28px" height="34px" viewBox="0 0 28 34" version="1.1" xmlns="http://www.w3.org/2000/svg" xmlns:xlink="http://www.w3.org/1999/xlink">
    <!-- Generator: Sketch 52.6 (67491) - http://www.bohemiancoding.com/sketch -->
    <title>pointerA</title>
    <desc>Created with Sketch.</desc>
    <g id="outras" stroke="none" stroke-width="1" fill="none" fill-rule="evenodd">
        <g id="iconos" transform="translate(-205.000000, -70.000000)">
            <g id="pointerA" transform="translate(205.000000, 70.000000)">
                <path d="M14.000131,0 C6.2680505,0 0,6.12699148 0,13.6848097 C0,23.9321517 10.2107381,31.700265 13.1919927,33.7496822 C13.677557,34.0834393 14.322443,34.0834393 14.8080073,33.7496822 C17.7892619,31.7000089 28,23.9321517 28,13.6848097 C28,6.12699148 21.7319495,0 14.000131,0 Z" id="Shape" fill="#F75D63"></path>
                <path d="M17.09,20 L16.376,17.984 L12.54,17.984 L11.826,20 L9.502,20 L13.24,10.074 L15.802,10.074 L19.498,20 L17.09,20 Z M14.486,12.538 L13.268,15.968 L15.676,15.968 L14.486,12.538 Z" id="A" fill="#FFFFFF"></path>
            </g>
        </g>
    </g>
</svg>