<?xml version="1.0" encoding="UTF-8"?>
<svg width="28px" height="34px" viewBox="0 0 28 34" version="1.1" xmlns="http://www.w3.org/2000/svg" xmlns:xlink="http://www.w3.org/1999/xlink">
    <!-- Generator: Sketch 52.6 (67491) - http://www.bohemiancoding.com/sketch -->
    <title>pointerD</title>
    <desc>Created with Sketch.</desc>
    <g id="outras" stroke="none" stroke-width="1" fill="none" fill-rule="evenodd">
        <g id="iconos" transform="translate(-334.000000, -70.000000)">
            <g id="pointerD" transform="translate(334.000000, 70.000000)">
                <path d="M14.000131,0 C6.2680505,0 0,6.12699148 0,13.6848097 C0,23.9321517 10.2107381,31.700265 13.1919927,33.7496822 C13.677557,34.0834393 14.322443,34.0834393 14.8080073,33.7496822 C17.7892619,31.7000089 28,23.9321517 28,13.6848097 C28,6.12699148 21.7319495,0 14.000131,0 Z" id="Shape" fill="#F75D63"></path>
                <path d="M12.708,17.914 L13.996,17.914 C15.522,17.914 16.768,17.032 16.768,15.044 C16.768,13.056 15.522,12.16 13.996,12.16 L12.708,12.16 L12.708,17.914 Z M14.08,20 L10.496,20 L10.496,10.074 L14.094,10.074 C17.076,10.074 19.078,11.978 19.078,15.044 C19.078,18.11 17.076,20 14.08,20 Z" id="D" fill="#FFFFFF"></path>
            </g>
        </g>
    </g>
</svg>