<?xml version="1.0" encoding="UTF-8"?>
<svg width="28px" height="34px" viewBox="0 0 28 34" version="1.1" xmlns="http://www.w3.org/2000/svg" xmlns:xlink="http://www.w3.org/1999/xlink">
    <!-- Generator: Sketch 52.6 (67491) - http://www.bohemiancoding.com/sketch -->
    <title>pointerB</title>
    <desc>Created with Sketch.</desc>
    <g id="outras" stroke="none" stroke-width="1" fill="none" fill-rule="evenodd">
        <g id="iconos" transform="translate(-248.000000, -70.000000)">
            <g id="pointerB" transform="translate(248.000000, 70.000000)">
                <path d="M14.000131,0 C6.2680505,0 0,6.12699148 0,13.6848097 C0,23.9321517 10.2107381,31.700265 13.1919927,33.7496822 C13.677557,34.0834393 14.322443,34.0834393 14.8080073,33.7496822 C17.7892619,31.7000089 28,23.9321517 28,13.6848097 C28,6.12699148 21.7319495,0 14.000131,0 Z" id="Shape" fill="#F75D63"></path>
                <path d="M11.259,10.074 L14.969,10.074 C16.929,10.074 18.063,11.208 18.063,12.734 C18.063,13.756 17.419,14.596 16.607,14.862 C17.503,15.072 18.371,15.898 18.371,17.186 C18.371,18.81 17.139,20 15.263,20 L11.259,20 L11.259,10.074 Z M13.415,14.05 L14.619,14.05 C15.389,14.05 15.893,13.644 15.893,12.972 C15.893,12.328 15.459,11.908 14.591,11.908 L13.415,11.908 L13.415,14.05 Z M13.415,18.194 L14.801,18.194 C15.655,18.194 16.173,17.746 16.173,17.032 C16.173,16.346 15.669,15.87 14.801,15.87 L13.415,15.87 L13.415,18.194 Z" id="B" fill="#FFFFFF"></path>
            </g>
        </g>
    </g>
</svg>