<svg xmlns="http://www.w3.org/2000/svg" width="18" height="18" viewBox="0 0 18 18">
    <g fill="none" fill-rule="evenodd">
        <circle cx="9" cy="9" r="9" fill="#F7F7F7"/>
        <path fill="#333" fill-rule="nonzero" d="M12.198 6.147a.497.497 0 0 0-.707 0L9.172 8.47 6.853 6.147a.499.499 0 1 0-.706.707l2.32 2.322-2.32 2.323a.499.499 0 0 0 .355.854c.13 0 .257-.05.355-.147l2.32-2.322 2.319 2.322a.497.497 0 0 0 .355.147.499.499 0 0 0 .355-.854L9.879 9.176l2.319-2.322a.499.499 0 0 0 0-.707z"/>
    </g>
</svg>
