<svg xmlns="http://www.w3.org/2000/svg" width="40" height="41" viewBox="0 0 40 41">
    <g fill="#00DDCD" fill-rule="evenodd">
        <path d="M19.857 28.118a1.694 1.694 0 1 1 .001 3.388 1.694 1.694 0 0 1-.001-3.388M18.351 10.945V23.94a1.506 1.506 0 1 0 3.012 0V10.945a1.506 1.506 0 1 0-3.012 0"/>
        <path d="M19.857 3.077c-9.592 0-17.396 7.804-17.396 17.396 0 9.591 7.804 17.395 17.396 17.395s17.396-7.804 17.396-17.395c0-9.592-7.804-17.396-17.396-17.396m0 37.252C8.908 40.33 0 31.422 0 20.473 0 9.523 8.908.615 19.857.615c10.95 0 19.858 8.909 19.858 19.858 0 10.95-8.908 19.856-19.858 19.856"/>
    </g>
</svg>
